# xmcd CD database file
#
# Track frame offsets:
#	150
#	2634
#	18346
#	33588
#	53537
#	69869
#	89683
#	102614
#	128475
#	143161
#	155701
#	176792
#	194141
#	210408
#	230284
#	245808
#	270089
#
# Disc length: 3900 seconds
#
# Revision: 0
# Processed by: cddbd v1.4PL0 Copyright (c) Steve Scherf et al.
# Submitted via: CDex 1.40Release
#
DISCID=e80f3a11
DTITLE=Greg Trooper - Live at Pine Hill Farm
DYEAR=2001
DGENRE=Country
TTITLE0=Intro 
TTITLE1=22 Miles to Bristol
TTITLE2=Two Drops of Rain
TTITLE3=We Won't Dance
TTITLE4=Little Sister
TTITLE5=Biologically Blue
TTITLE6=Once and For All
TTITLE7=Ireland
TTITLE8=Take the Gun out of Your Mouth
TTITLE9=Lovn' Never Came Back that Easy
TTITLE10=Hannah's Dream
TTITLE11=So French
TTITLE12=Cumberland Square
TTITLE13=Another Shitty Saturday Night
TTITLE14=Carmelita
TTITLE15=Everywhere
TTITLE16=Halfway
EXTD=YEAR: 2001 ID3G: 2
EXTT0=
EXTT1=
EXTT2=
EXTT3=
EXTT4=
EXTT5=
EXTT6=
EXTT7=
EXTT8=
EXTT9=
EXTT10=
EXTT11=
EXTT12=
EXTT13=
EXTT14=
EXTT15=
EXTT16=
PLAYORDER=
